# Blender 4.0.2
# www.blender.org
mtllib Club_Furniturs_Shelf.mtl
o Club_Furniturs_Shelf
v 0.000000 0.000000 1.000000
v 0.000000 0.000000 0.000000
v 0.000000 0.050000 1.000000
v 0.500000 0.000000 1.000000
v 0.500000 0.050000 1.000000
v 0.500000 0.000000 0.000000
v 0.500000 0.000000 -1.000000
v 0.500000 0.050000 0.000000
v 0.500000 0.050000 -1.000000
v 0.000000 0.050000 0.000000
v 0.000000 0.050000 -1.000000
v 0.000000 0.000000 -1.000000
v 0.035532 0.397653 0.979513
v 0.035532 0.079103 0.979513
v 0.116462 0.397653 0.979513
v 0.006148 0.436999 0.980926
v 0.035532 0.397653 0.932340
v 0.116462 0.397653 0.932340
v 0.035532 0.079103 0.932340
v 0.006148 0.436999 0.930927
v 0.129510 0.436999 0.930927
v 0.006148 0.043031 0.930927
v 0.006148 0.043031 0.980926
v 0.339180 0.043031 0.930927
v 0.339180 0.103364 0.930927
v 0.493852 0.043031 0.930927
v 0.302391 0.079103 0.932340
v 0.302391 0.079103 0.979513
v 0.302391 0.101796 0.932340
v 0.302391 0.101796 0.979513
v 0.339180 0.103364 0.980926
v 0.129510 0.436999 0.980926
v 0.339180 0.043031 0.980926
v 0.493852 0.082576 0.980926
v 0.493852 0.082576 0.930927
v 0.493852 0.043031 0.980926
v 0.035532 0.397653 -0.979513
v 0.035532 0.079103 -0.979513
v 0.116462 0.397653 -0.979513
v 0.006148 0.436999 -0.980926
v 0.035532 0.397653 -0.932340
v 0.116462 0.397653 -0.932340
v 0.035532 0.079103 -0.932340
v 0.006148 0.436999 -0.930927
v 0.129510 0.436999 -0.930927
v 0.006148 0.043031 -0.930927
v 0.006148 0.043031 -0.980926
v 0.339180 0.043031 -0.930927
v 0.339180 0.103364 -0.930927
v 0.493852 0.043031 -0.930927
v 0.302391 0.079103 -0.932340
v 0.302391 0.079103 -0.979513
v 0.302391 0.101796 -0.932340
v 0.302391 0.101796 -0.979513
v 0.339180 0.103364 -0.980926
v 0.129510 0.436999 -0.980926
v 0.339180 0.043031 -0.980926
v 0.493852 0.082576 -0.980926
v 0.493852 0.082576 -0.930927
v 0.493852 0.043031 -0.980926
vn -1.0000 -0.0000 -0.0000
vn -0.0000 -1.0000 -0.0000
vn -0.0000 -0.0000 1.0000
vn 1.0000 -0.0000 -0.0000
vn -0.0000 1.0000 -0.0000
vn -0.0000 -0.0000 -1.0000
vn 0.0480 -0.0000 0.9988
vn -0.0000 -0.0359 0.9994
vn -0.0000 -0.0359 -0.9994
vn 0.0480 -0.0000 -0.9988
vn -0.0000 0.0392 -0.9992
vn -0.0384 -0.0000 -0.9993
vn -0.0374 -0.0235 -0.9990
vn -0.8467 -0.5321 -0.0000
vn -0.0374 -0.0235 0.9990
vn -0.0384 -0.0000 0.9993
vn 0.1332 0.9911 -0.0000
vn 0.8467 0.5321 -0.0000
vn -0.0000 0.0392 0.9992
vt 0.119870 0.306271
vt 0.112586 0.306271
vt 0.112586 0.160583
vt 0.119870 0.160583
vt 0.112586 0.459243
vt 0.039742 0.459243
vt 0.039742 0.313556
vt 0.112586 0.313556
vt 0.039742 0.306271
vt 0.032457 0.160583
vt 0.039742 0.160583
vt 0.032457 0.306271
vt 0.032457 0.014895
vt 0.039742 0.014895
vt 0.112586 0.604931
vt 0.039742 0.604931
vt 0.112586 0.014895
vt 0.119870 0.014895
vt 0.112586 0.007611
vt 0.039742 0.007611
vt 0.272784 0.351701
vt 0.272784 0.344828
vt 0.319193 0.344828
vt 0.319193 0.351701
vt 0.435260 0.368785
vt 0.388865 0.368770
vt 0.383132 0.364484
vt 0.440519 0.364501
vt 0.388861 0.380559
vt 0.383123 0.382460
vt 0.330984 0.344828
vt 0.330984 0.351701
vt 0.474341 0.113631
vt 0.474340 0.125419
vt 0.468605 0.129703
vt 0.468605 0.111727
vt 0.520735 0.125427
vt 0.525992 0.129713
vt 0.376546 0.341835
vt 0.376546 0.334550
vt 0.433942 0.334550
vt 0.433942 0.341835
vt 0.358573 0.334550
vt 0.358573 0.341835
vt 0.520750 0.086557
vt 0.526010 0.081197
vt 0.517444 0.086556
vt 0.517217 0.081191
vt 0.520262 0.058649
vt 0.526026 0.058653
vt 0.424076 0.351701
vt 0.385197 0.351701
vt 0.385197 0.344828
vt 0.424076 0.344828
vt 0.381891 0.351701
vt 0.381891 0.344828
vt 0.431951 0.407654
vt 0.431721 0.413019
vt 0.435257 0.407655
vt 0.440515 0.413017
vt 0.301165 0.334550
vt 0.301165 0.341835
vt 0.278429 0.341835
vt 0.278429 0.334550
vt 0.440519 0.435562
vt 0.434755 0.435563
vt 0.272668 0.341835
vt 0.272668 0.334550
vt 0.272785 0.354694
vt 0.319193 0.354694
vt 0.319193 0.361567
vt 0.272785 0.361567
vt 0.745371 0.542935
vt 0.749658 0.537678
vt 0.749648 0.595065
vt 0.745364 0.589330
vt 0.731672 0.595065
vt 0.733576 0.589329
vt 0.330984 0.354694
vt 0.330984 0.361567
vt 0.464501 0.023734
vt 0.458764 0.025636
vt 0.458772 0.007659
vt 0.464505 0.011946
vt 0.516160 0.007677
vt 0.510900 0.011961
vt 0.330064 0.331968
vt 0.272667 0.331968
vt 0.272667 0.324684
vt 0.330064 0.324684
vt 0.348036 0.324684
vt 0.348036 0.331968
vt 0.516155 0.056193
vt 0.510897 0.050830
vt 0.507361 0.056194
vt 0.507591 0.050829
vt 0.516160 0.078737
vt 0.510396 0.078738
vt 0.424076 0.354694
vt 0.424076 0.361567
vt 0.385197 0.361567
vt 0.385197 0.354694
vt 0.381891 0.361567
vt 0.381891 0.354694
vt 0.701136 0.546453
vt 0.706501 0.546226
vt 0.701142 0.537659
vt 0.706502 0.542920
vt 0.405444 0.324684
vt 0.428180 0.324684
vt 0.428181 0.331969
vt 0.405444 0.331968
vt 0.678594 0.543408
vt 0.678597 0.537644
vt 0.433942 0.324684
vt 0.433942 0.331969
s 0
f 1/1/1 3/2/1 10/3/1 2/4/1
f 2/5/2 6/6/2 4/7/2 1/8/2
f 4/7/3 5/9/3 3/2/3 1/8/3
f 6/10/4 8/11/4 5/9/4 4/12/4
f 7/13/4 9/14/4 8/11/4 6/10/4
f 12/15/2 7/16/2 6/6/2 2/5/2
f 8/11/5 10/3/5 3/2/5 5/9/5
f 9/14/5 11/17/5 10/3/5 8/11/5
f 2/4/1 10/3/1 11/17/1 12/18/1
f 12/19/6 11/17/6 9/14/6 7/20/6
f 14/21/4 19/22/4 17/23/4 13/24/4
f 14/25/7 13/26/7 16/27/7 23/28/7
f 13/26/8 15/29/8 32/30/8 16/27/8
f 17/23/2 18/31/2 15/32/2 13/24/2
f 18/33/9 17/34/9 20/35/9 21/36/9
f 17/34/10 19/37/10 22/38/10 20/35/10
f 16/39/1 20/40/1 22/41/1 23/42/1
f 21/43/5 20/40/5 16/39/5 32/44/5
f 19/37/11 27/45/11 24/46/11 22/38/11
f 27/45/12 29/47/12 25/48/12 24/46/12
f 24/46/6 25/48/6 35/49/6 26/50/6
f 14/51/5 28/52/5 27/53/5 19/54/5
f 27/53/1 28/52/1 30/55/1 29/56/1
f 29/47/13 18/33/13 21/36/13 25/48/13
f 29/56/14 30/55/14 15/32/14 18/31/14
f 15/29/15 30/57/15 31/58/15 32/30/15
f 30/57/16 28/59/16 33/60/16 31/58/16
f 25/61/17 31/62/17 34/63/17 35/64/17
f 25/61/18 21/43/18 32/44/18 31/62/18
f 31/58/3 33/60/3 36/65/3 34/66/3
f 35/64/4 34/63/4 36/67/4 26/68/4
f 28/59/19 14/25/19 23/28/19 33/60/19
f 38/69/4 37/70/4 41/71/4 43/72/4
f 38/73/10 47/74/10 40/75/10 37/76/10
f 37/76/9 40/75/9 56/77/9 39/78/9
f 41/71/2 37/70/2 39/79/2 42/80/2
f 42/81/8 45/82/8 44/83/8 41/84/8
f 41/84/7 44/83/7 46/85/7 43/86/7
f 40/87/1 47/88/1 46/89/1 44/90/1
f 45/91/5 56/92/5 40/87/5 44/90/5
f 43/86/19 46/85/19 48/93/19 51/94/19
f 51/94/16 48/93/16 49/95/16 53/96/16
f 48/93/3 50/97/3 59/98/3 49/95/3
f 38/99/5 43/100/5 51/101/5 52/102/5
f 51/101/1 53/103/1 54/104/1 52/102/1
f 53/96/15 49/95/15 45/82/15 42/81/15
f 53/103/14 42/80/14 39/79/14 54/104/14
f 39/78/13 56/77/13 55/105/13 54/106/13
f 54/106/12 55/105/12 57/107/12 52/108/12
f 49/109/17 59/110/17 58/111/17 55/112/17
f 49/109/18 55/112/18 56/92/18 45/91/18
f 55/105/6 58/113/6 60/114/6 57/107/6
f 59/110/4 50/115/4 60/116/4 58/111/4
f 52/108/11 57/107/11 47/74/11 38/73/11
