# Blender 4.0.2
# www.blender.org
mtllib Chiote_Props_Mirror.mtl
o Chiote_Props_Mirror
v -0.400000 -0.498107 0.025000
v -0.400000 0.498107 0.025000
v -0.400000 -0.498107 -0.025000
v -0.400000 0.498107 -0.025000
v 0.400000 -0.498107 0.025000
v 0.400000 0.498107 0.025000
v 0.400000 -0.498107 -0.025000
v 0.400000 0.498107 -0.025000
vn -1.0000 -0.0000 -0.0000
vn -0.0000 -0.0000 -1.0000
vn 1.0000 -0.0000 -0.0000
vn -0.0000 -1.0000 -0.0000
vn -0.0000 1.0000 -0.0000
vt 0.327796 0.496901
vt 0.327796 0.821905
vt 0.311484 0.821905
vt 0.311484 0.496901
vt 0.050492 0.821905
vt 0.050492 0.496901
vt 0.034180 0.821905
vt 0.034180 0.496901
vt 0.050492 0.480589
vt 0.311484 0.480589
vt 0.311484 0.838217
vt 0.050492 0.838217
s 0
f 1/1/1 2/2/1 4/3/1 3/4/1
f 3/4/2 4/3/2 8/5/2 7/6/2
f 7/6/3 8/5/3 6/7/3 5/8/3
f 3/4/4 7/6/4 5/9/4 1/10/4
f 8/5/5 4/3/5 2/11/5 6/12/5
