# Blender 4.0.2
# www.blender.org
mtllib Chiote_Furniturs_Cabine.mtl
o Chiote_Furniturs_Cabine
v -1.785960 0.000000 0.600000
v -1.700960 2.100000 0.500000
v -1.785960 0.000000 -0.600000
v -1.700960 2.100000 -0.500000
v -0.100960 0.000000 0.600000
v -0.100960 2.100000 0.500000
v -0.100960 0.000000 -0.600000
v -0.100960 2.100000 -0.500000
v -1.785960 2.100000 0.600000
v -1.785960 2.100000 -0.600000
v -0.100960 2.100000 -0.600000
v -0.100960 2.100000 0.600000
v -1.700960 0.000000 0.500000
v -1.700960 0.000000 -0.500000
v -0.100960 0.000000 -0.500000
v -0.100960 0.000000 0.500000
vn -1.0000 -0.0000 -0.0000
vn -0.0000 -0.0000 -1.0000
vn -0.0000 -0.0000 1.0000
vn -0.0000 1.0000 -0.0000
vn 1.0000 -0.0000 -0.0000
vt 0.007348 0.275390
vt 0.339967 0.275390
vt 0.339967 0.465458
vt 0.007348 0.465458
vt 0.339967 0.732345
vt 0.007348 0.732345
vt 0.007348 0.008503
vt 0.339967 0.008503
vt 0.722831 0.915749
vt 0.881220 0.915749
vt 0.897059 0.929212
vt 0.706992 0.929212
vt 0.881220 0.662325
vt 0.897059 0.662325
vt 0.722831 0.662325
vt 0.706992 0.662325
vt 0.341394 0.420280
vt 0.341394 0.261890
vt 0.674013 0.261890
vt 0.674013 0.420280
vt 0.341394 0.008466
vt 0.674013 0.008466
vt 0.341394 0.673703
vt 0.674013 0.673703
s 0
f 1/1/1 9/2/1 10/3/1 3/4/1
f 3/4/2 10/3/2 11/5/2 7/6/2
f 5/7/3 12/8/3 9/2/3 1/1/3
f 2/9/4 4/10/4 10/11/4 9/12/4
f 4/10/4 8/13/4 11/14/4 10/11/4
f 6/15/4 2/9/4 9/12/4 12/16/4
f 4/17/5 2/18/5 13/19/5 14/20/5
f 2/18/2 6/21/2 16/22/2 13/19/2
f 8/23/3 4/17/3 14/20/3 15/24/3
