# Blender 4.0.2
# www.blender.org
mtllib Chiote_Furniturs_Door.mtl
o Chiote_Furniturs_Door
v -0.025000 0.000000 0.500000
v -0.025000 0.000000 -0.500000
v -0.025000 2.000000 0.500000
v 0.025000 0.000000 0.500000
v 0.025000 0.000000 -0.500000
v 0.025000 2.000000 0.500000
v 0.025000 2.000000 -0.500000
v -0.025000 2.000000 -0.500000
v 0.095913 0.853348 -0.473112
v 0.039198 0.853348 -0.473112
v 0.095913 0.833983 -0.461931
v 0.095913 0.872713 -0.461931
v 0.117868 0.853348 -0.469707
v 0.113589 0.833983 -0.459378
v 0.113589 0.872713 -0.459378
v 0.134561 0.853348 -0.457467
v 0.126655 0.833983 -0.449561
v 0.126655 0.872713 -0.449561
v 0.144819 0.853348 -0.439389
v 0.134490 0.833983 -0.435111
v 0.134490 0.872713 -0.435111
v 0.148224 0.853348 -0.419327
v 0.137043 0.833983 -0.419327
v 0.137043 0.872713 -0.419327
v 0.146437 0.853348 -0.334733
v 0.143778 0.853348 -0.250138
v 0.136150 0.871166 -0.334733
v 0.136150 0.835530 -0.334733
v 0.134820 0.837833 -0.250138
v 0.115576 0.835530 -0.334733
v 0.114682 0.833983 -0.419327
v 0.116905 0.837833 -0.250138
v 0.105289 0.853348 -0.334733
v 0.103502 0.853348 -0.419327
v 0.107948 0.853348 -0.250138
v 0.115576 0.871166 -0.334733
v 0.116905 0.868863 -0.250138
v 0.114682 0.872713 -0.419327
v 0.113831 0.872713 -0.426554
v 0.103502 0.853348 -0.422275
v 0.110843 0.872713 -0.433750
v 0.102937 0.853348 -0.425844
v 0.105032 0.872713 -0.438719
v 0.100754 0.853348 -0.428390
v 0.095913 0.872713 -0.439570
v 0.095913 0.853348 -0.428390
v 0.039198 0.872713 -0.439570
v 0.039198 0.880792 -0.434906
v 0.039198 0.872713 -0.461931
v 0.039198 0.853348 -0.428390
v 0.039198 0.833983 -0.439570
v 0.039198 0.853348 -0.419061
v 0.016837 0.853348 -0.419061
v 0.039198 0.825904 -0.434906
v 0.016837 0.825904 -0.434906
v 0.039198 0.825904 -0.466596
v 0.039198 0.833983 -0.461931
v 0.016837 0.825904 -0.466596
v 0.039198 0.853348 -0.482441
v 0.016837 0.853348 -0.482441
v 0.039198 0.880792 -0.466596
v 0.016837 0.880792 -0.466596
v 0.016837 0.880792 -0.434906
v 0.095913 0.833983 -0.439570
v 0.105032 0.833983 -0.438719
v 0.110843 0.833983 -0.433750
v 0.113831 0.833983 -0.426554
v 0.134820 0.868863 -0.250138
v 0.120554 0.862543 -0.246974
v 0.115246 0.853348 -0.246974
v 0.131171 0.862543 -0.246974
v 0.125863 0.853348 -0.246974
v 0.136480 0.853348 -0.246974
v 0.120554 0.844153 -0.246974
v 0.131171 0.844153 -0.246974
vn -0.0000 -1.0000 -0.0000
vn -1.0000 -0.0000 -0.0000
vn -0.0000 -0.0000 1.0000
vn 1.0000 -0.0000 -0.0000
vn -0.0000 1.0000 -0.0000
vn -0.0000 -0.0000 -1.0000
vn -0.0000 0.5000 -0.8660
vn -0.0000 -0.5000 -0.8660
vn 0.1294 -0.4923 -0.8607
vn 0.1294 0.4923 -0.8607
vn 0.5183 -0.4923 -0.6993
vn 0.5183 0.4923 -0.6993
vn 0.7611 -0.4915 -0.4233
vn 0.7611 0.4915 -0.4233
vn 0.8585 -0.4926 -0.1427
vn 0.8585 0.4926 -0.1427
vn 0.8659 -0.4999 0.0183
vn 0.8659 0.4999 0.0183
vn 0.8657 0.4998 0.0272
vn 0.8657 -0.4998 0.0272
vn -0.0000 -0.9996 0.0272
vn -0.0000 -0.9998 0.0183
vn -0.8659 -0.4999 0.0183
vn -0.8657 -0.4998 0.0272
vn -0.8659 0.4999 0.0183
vn -0.8657 0.4998 0.0272
vn -0.0000 0.9996 0.0272
vn -0.0000 0.9998 0.0183
vn -0.8685 0.4904 0.0727
vn -0.8336 0.4790 0.2751
vn -0.5980 0.4876 0.6361
vn -0.0531 0.4893 0.8705
vn -0.0000 0.5000 0.8660
vn -0.0000 -0.5000 0.8660
vn -0.0531 -0.4893 0.8705
vn -0.5980 -0.4876 0.6361
vn -0.8336 -0.4790 0.2751
vn -0.8685 -0.4904 0.0727
vn -0.3877 0.2239 0.8942
vn -0.0000 0.4477 0.8942
vn -0.0000 -0.4477 0.8942
vn -0.3877 -0.2239 0.8942
vn 0.3877 -0.2239 0.8942
vn 0.3877 0.2239 0.8942
vt 0.843064 0.009645
vt 0.843064 0.017565
vt 0.684675 0.017565
vt 0.684675 0.009645
vt 0.684675 0.659043
vt 0.684675 0.342264
vt 0.843064 0.342264
vt 0.843064 0.659043
vt 0.684675 0.334344
vt 0.676755 0.334344
vt 0.676755 0.017565
vt 0.843064 0.334344
vt 0.850984 0.017565
vt 0.850984 0.334344
vt 0.350396 0.711382
vt 0.350595 0.702568
vt 0.353837 0.702722
vt 0.354027 0.711401
vt 0.357045 0.702324
vt 0.357725 0.711252
vt 0.353725 0.699736
vt 0.356792 0.699748
vt 0.350662 0.699972
vt 0.353609 0.696546
vt 0.357310 0.697276
vt 0.349969 0.697542
vt 0.691404 0.693802
vt 0.687679 0.694647
vt 0.687696 0.691485
vt 0.690908 0.691178
vt 0.683952 0.693766
vt 0.684478 0.691136
vt 0.687719 0.688626
vt 0.690930 0.688832
vt 0.684489 0.688775
vt 0.687720 0.675821
vt 0.691003 0.675803
vt 0.684461 0.675792
vt 0.684856 0.662230
vt 0.687751 0.662272
vt 0.690650 0.662230
vt 0.694298 0.675728
vt 0.693549 0.662109
vt 0.694394 0.689256
vt 0.698053 0.689276
vt 0.697604 0.675576
vt 0.696446 0.661906
vt 0.680983 0.689168
vt 0.677307 0.689167
vt 0.677903 0.675530
vt 0.681200 0.675700
vt 0.679075 0.661906
vt 0.681963 0.662112
vt 0.680952 0.690377
vt 0.677305 0.689651
vt 0.680690 0.691667
vt 0.677255 0.690238
vt 0.347097 0.700529
vt 0.343382 0.701178
vt 0.343159 0.700666
vt 0.346629 0.699310
vt 0.347069 0.702084
vt 0.343364 0.701976
vt 0.343159 0.711214
vt 0.346800 0.711295
vt 0.694872 0.699776
vt 0.697940 0.701546
vt 0.697940 0.703024
vt 0.693593 0.700514
vt 0.694872 0.696234
vt 0.693593 0.695495
vt 0.361429 0.710949
vt 0.360509 0.701611
vt 0.364229 0.701262
vt 0.365099 0.710605
vt 0.697939 0.694463
vt 0.697939 0.692985
vt 0.677801 0.365006
vt 0.681343 0.365006
vt 0.681343 0.370025
vt 0.677801 0.370025
vt 0.677801 0.339909
vt 0.681343 0.339909
vt 0.681343 0.344928
vt 0.677801 0.344928
vt 0.701007 0.696234
vt 0.702286 0.695495
vt 0.677801 0.359986
vt 0.681343 0.359986
vt 0.701007 0.699776
vt 0.702286 0.700514
vt 0.677801 0.354967
vt 0.681343 0.354967
vt 0.677801 0.349948
vt 0.681343 0.349948
vt 0.360381 0.700058
vt 0.364158 0.700460
vt 0.360766 0.698806
vt 0.364347 0.699930
vt 0.694667 0.691741
vt 0.694416 0.690457
vt 0.698098 0.690343
vt 0.698052 0.689758
vt 0.681343 0.012518
vt 0.678785 0.013988
vt 0.678783 0.012688
vt 0.680214 0.011886
vt 0.681343 0.009577
vt 0.680230 0.010223
vt 0.677343 0.011883
vt 0.678787 0.011053
vt 0.678790 0.009419
vt 0.677359 0.010220
vt 0.676230 0.012529
vt 0.676230 0.009589
vt 0.678788 0.008118
s 0
f 2/1/1 5/2/1 4/3/1 1/4/1
f 1/5/2 3/6/2 8/7/2 2/8/2
f 4/3/3 6/9/3 3/10/3 1/11/3
f 5/2/4 7/12/4 6/9/4 4/3/4
f 7/12/5 8/7/5 3/6/5 6/9/5
f 2/13/6 8/14/6 7/12/6 5/2/6
f 49/15/7 12/16/7 9/17/7 10/18/7
f 10/18/8 9/17/8 11/19/8 57/20/8
f 11/19/9 9/17/9 13/21/9 14/22/9
f 9/17/10 12/16/10 15/23/10 13/21/10
f 14/22/11 13/21/11 16/24/11 17/25/11
f 13/21/12 15/23/12 18/26/12 16/24/12
f 17/27/13 16/28/13 19/29/13 20/30/13
f 16/28/14 18/31/14 21/32/14 19/29/14
f 20/30/15 19/29/15 22/33/15 23/34/15
f 19/29/16 21/32/16 24/35/16 22/33/16
f 23/34/17 22/33/17 25/36/17 28/37/17
f 22/33/18 24/35/18 27/38/18 25/36/18
f 25/36/19 27/38/19 68/39/19 26/40/19
f 28/37/20 25/36/20 26/40/20 29/41/20
f 30/42/21 28/37/21 29/41/21 32/43/21
f 31/44/22 23/34/22 28/37/22 30/42/22
f 34/45/23 31/44/23 30/42/23 33/46/23
f 33/46/24 30/42/24 32/43/24 35/47/24
f 38/48/25 34/49/25 33/50/25 36/51/25
f 36/51/26 33/50/26 35/52/26 37/53/26
f 27/38/27 36/51/27 37/53/27 68/39/27
f 24/35/28 38/48/28 36/51/28 27/38/28
f 39/54/29 40/55/29 34/49/29 38/48/29
f 21/32/5 39/54/5 38/48/5 24/35/5
f 41/56/30 42/57/30 40/55/30 39/54/30
f 18/31/5 41/56/5 39/54/5 21/32/5
f 43/58/31 44/59/31 42/60/31 41/61/31
f 15/23/5 43/58/5 41/61/5 18/26/5
f 45/62/32 46/63/32 44/59/32 43/58/32
f 12/16/5 45/62/5 43/58/5 15/23/5
f 50/64/33 46/63/33 45/62/33 47/65/33
f 47/65/5 45/62/5 12/16/5 49/15/5
f 47/66/4 49/67/4 61/68/4 48/69/4
f 50/70/4 47/66/4 48/69/4 52/71/4
f 51/72/34 64/73/34 46/74/34 50/75/34
f 51/76/4 50/70/4 52/71/4 54/77/4
f 55/78/34 54/79/34 52/80/34 53/81/34
f 53/82/33 52/83/33 48/84/33 63/85/33
f 57/86/4 51/76/4 54/77/4 56/87/4
f 58/88/1 56/89/1 54/79/1 55/78/1
f 10/90/4 57/86/4 56/87/4 59/91/4
f 60/92/8 59/93/8 56/89/8 58/88/8
f 62/94/7 61/95/7 59/93/7 60/92/7
f 49/67/4 10/90/4 59/91/4 61/68/4
f 63/85/5 48/84/5 61/95/5 62/94/5
f 57/20/1 11/19/1 64/73/1 51/72/1
f 64/73/1 11/19/1 14/22/1 65/96/1
f 46/74/35 64/73/35 65/96/35 44/97/35
f 65/96/1 14/22/1 17/25/1 66/98/1
f 44/97/36 65/96/36 66/98/36 42/99/36
f 66/100/1 17/27/1 20/30/1 67/101/1
f 42/102/37 66/100/37 67/101/37 40/103/37
f 67/101/1 20/30/1 23/34/1 31/44/1
f 40/103/38 67/101/38 31/44/38 34/45/38
f 37/104/39 35/105/39 70/106/39 69/107/39
f 68/108/40 37/104/40 69/107/40 71/109/40
f 70/106/3 74/110/3 72/111/3 69/107/3
f 71/109/3 69/107/3 72/111/3 73/112/3
f 75/113/3 73/112/3 72/111/3 74/110/3
f 32/114/41 29/115/41 75/113/41 74/110/41
f 35/105/42 32/114/42 74/110/42 70/106/42
f 29/115/43 26/116/43 73/112/43 75/113/43
f 26/116/44 68/108/44 71/109/44 73/112/44
