# Blender 4.0.2
# www.blender.org
mtllib Club_Structures_Wall.mtl
o Club_Structures_Wall
v -0.275498 2.105616 2.000000
v -0.275498 2.105616 0.000000
v -0.176331 2.105616 2.000000
v -0.176331 2.105616 -0.000000
v -0.075497 0.210251 0.000000
v -0.075498 0.210251 2.000000
v -0.075497 2.100000 0.000000
v 0.000000 0.210251 0.000000
v 0.000000 0.000000 0.000000
v -0.000000 0.210251 2.000000
v -0.000000 0.000000 2.000000
v -0.075498 2.100000 2.000000
v -0.275497 2.100000 -0.000000
v -0.275498 2.100000 2.000000
vn -0.0000 1.0000 -0.0000
vn 1.0000 -0.0000 -0.0000
vt 0.858401 0.349060
vt 0.841459 0.349060
vt 0.841459 0.007370
vt 0.858401 0.007370
vt 0.451852 0.056189
vt 0.451852 0.043290
vt 0.793543 0.043290
vt 0.793543 0.056188
vt 0.793543 0.379043
vt 0.451852 0.379043
vt 0.451852 0.007370
vt 0.793543 0.007370
vt 0.793543 0.413212
vt 0.451852 0.413212
s 0
usemtl Lit
f 6/5/1 10/6/1 8/7/1 5/8/1
f 6/5/2 5/8/2 7/9/2 12/10/2
f 11/11/2 9/12/2 8/7/2 10/6/2
f 7/9/1 13/13/1 14/14/1 12/10/1
usemtl Unlit_Black
f 1/1/1 3/2/1 4/3/1 2/4/1
