# Blender 4.0.2
# www.blender.org
mtllib Club_Structures_Floor.mtl
o Club_Structures_Floor
v -2.000000 0.000000 2.000000
v -2.000000 0.100000 2.000000
v -2.000000 0.000000 0.000000
v -2.000000 0.100000 0.000000
v 0.000000 0.000000 2.000000
v 0.000000 0.100000 2.000000
v 0.000000 0.000000 0.000000
v 0.000000 0.100000 0.000000
vn -1.0000 -0.0000 -0.0000
vn -0.0000 -0.0000 -1.0000
vn 1.0000 -0.0000 -0.0000
vn -0.0000 -0.0000 1.0000
vn -0.0000 1.0000 -0.0000
vt 0.516428 0.789496
vt 0.516428 0.772412
vt 0.858119 0.772412
vt 0.858119 0.789496
vt 0.875203 0.772412
vt 0.858119 0.430721
vt 0.875203 0.430721
vt 0.858119 0.413637
vt 0.516428 0.430721
vt 0.516428 0.413637
vt 0.499344 0.430721
vt 0.499344 0.772412
s 0
usemtl Lit
f 1/1/1 2/2/1 4/3/1 3/4/1
f 3/5/2 4/3/2 8/6/2 7/7/2
f 7/8/3 8/6/3 6/9/3 5/10/3
f 5/11/4 6/9/4 2/2/4 1/12/4
f 8/6/5 4/3/5 2/2/5 6/9/5
