# Blender 4.0.2
# www.blender.org
mtllib Club_Structures_Exit.mtl
o Club_Structures_Exit
v -0.275497 2.100000 4.000000
v -0.075497 2.100000 4.000000
v -0.275497 2.100000 0.000000
v -0.075497 2.100000 0.000000
v -0.075497 0.000000 0.000000
v -0.075497 1.883488 1.000000
v -0.075497 0.000000 1.000000
v -0.075497 1.883488 3.000000
v -0.275497 1.883488 1.000000
v -0.275497 0.000000 1.000000
v -0.275497 1.883488 3.000000
v -0.275497 0.000000 3.000000
v -0.075497 0.000000 3.000000
v -0.075497 0.000000 4.000000
v -0.075497 0.210251 4.000000
v 0.000000 0.210251 4.000000
v -0.075497 0.210251 3.000000
v 0.000000 0.210251 3.000000
v -0.075497 0.000000 3.000000
v 0.000000 0.000000 3.000000
v 0.000000 0.000000 4.000000
v -0.275497 2.105616 4.000000
v -0.176331 2.105616 4.000000
v -0.275497 2.105616 0.000000
v -0.176331 2.105616 0.000000
v -0.075497 0.210251 0.000000
v 0.000000 0.210251 0.000000
v -0.075497 0.210251 1.000000
v 0.000000 0.210251 1.000000
v -0.075497 0.000000 1.000000
v 0.000000 0.000000 1.000000
v 0.000000 0.000000 0.000000
vn -0.0000 1.0000 -0.0000
vn 1.0000 -0.0000 -0.0000
vn -0.0000 -0.0000 1.0000
vn -0.0000 -1.0000 -0.0000
vn -0.0000 -0.0000 -1.0000
vt 0.075286 0.007370
vt 0.075286 0.690751
vt 0.041117 0.690751
vt 0.041117 0.007370
vt 0.112276 0.519905
vt 0.112276 0.178215
vt 0.434061 0.519905
vt 0.434061 0.690751
vt 0.006523 0.670845
vt 0.040692 0.670845
vt 0.040692 0.992630
vt 0.006523 0.992630
vt 0.040692 0.329155
vt 0.006523 0.329155
vt 0.006523 0.007370
vt 0.040692 0.007370
vt 0.434061 0.178215
vt 0.434061 0.007370
vt 0.090360 0.691175
vt 0.103258 0.691175
vt 0.103258 0.862020
vt 0.090360 0.862020
vt 0.103258 0.897941
vt 0.090360 0.897941
vt 0.139179 0.691175
vt 0.139179 0.862020
vt 0.434486 0.690751
vt 0.434486 0.007370
vt 0.451428 0.007370
vt 0.451428 0.690751
vt 0.041117 0.897941
vt 0.041117 0.727096
vt 0.054015 0.727096
vt 0.054015 0.897941
vt 0.041117 0.691175
vt 0.054015 0.691175
vt 0.089935 0.897941
vt 0.089935 0.727096
s 0
usemtl Lit
f 2/1/1 4/2/1 3/3/1 1/4/1
f 6/5/2 4/2/2 2/1/2 8/6/2
f 7/7/2 5/8/2 4/2/2 6/5/2
f 6/9/3 9/10/3 10/11/3 7/12/3
f 11/13/4 9/10/4 6/9/4 8/14/4
f 8/14/5 13/15/5 12/16/5 11/13/5
f 13/17/2 8/6/2 2/1/2 14/18/2
f 15/19/1 16/20/1 18/21/1 17/22/1
f 17/22/5 18/21/5 20/23/5 19/24/5
f 21/25/2 20/26/2 18/21/2 16/20/2
f 26/31/1 28/32/1 29/33/1 27/34/1
f 28/32/3 30/35/3 31/36/3 29/33/3
f 32/37/2 27/34/2 29/33/2 31/38/2
usemtl Unlit_Black
f 24/27/1 22/28/1 23/29/1 25/30/1
