# Blender 4.0.2
# www.blender.org
mtllib Club_Structures_WallCorner.mtl
o Club_Structures_WallCorner
v -0.275498 2.105616 0.099166
v -0.176331 2.105616 0.099166
v -0.275498 2.105616 0.000000
v -0.176331 2.105616 -0.000000
v -0.075497 0.210251 0.000000
v -0.075497 0.210251 0.200000
v -0.075497 2.100000 0.000000
v 0.000000 0.210251 0.000000
v 0.000000 0.000000 0.000000
v -0.000000 0.210251 0.275497
v -0.000000 0.000000 0.275497
v -0.275497 0.210251 0.275497
v -0.275497 0.210251 0.200000
v -0.275497 0.000000 0.275497
v -0.275497 2.100000 0.200000
v -0.275497 2.100000 -0.000000
v -0.075497 2.100000 0.200000
vn -0.0000 1.0000 -0.0000
vn 1.0000 -0.0000 -0.0000
vn -0.0000 -0.0000 1.0000
vt 0.139603 0.691175
vt 0.156545 0.691175
vt 0.156545 0.708117
vt 0.139603 0.708117
vt 0.806865 0.056189
vt 0.793967 0.043290
vt 0.841034 0.043290
vt 0.841034 0.056189
vt 0.841034 0.379043
vt 0.806865 0.379043
vt 0.793967 0.007370
vt 0.841034 0.007370
vt 0.451852 0.462455
vt 0.451852 0.449557
vt 0.498920 0.449557
vt 0.486021 0.462455
vt 0.451852 0.413637
vt 0.498920 0.413637
vt 0.486021 0.785310
vt 0.451852 0.785310
vt 0.486021 0.819479
vt 0.451852 0.819479
s 0
usemtl Lit
f 6/5/1 10/6/1 8/7/1 5/8/1
f 6/5/2 5/8/2 7/9/2 17/10/2
f 11/11/2 9/12/2 8/7/2 10/6/2
f 13/13/1 12/14/1 10/15/1 6/16/1
f 14/17/3 11/18/3 10/15/3 12/14/3
f 13/13/3 6/16/3 17/19/3 15/20/3
f 7/21/1 16/22/1 15/20/1 17/19/1
usemtl Unlit_Black
f 1/1/1 2/2/1 4/3/1 3/4/1
