# Blender 4.0.2
# www.blender.org
mtllib Club_Props_Bottle_E.mtl
o Club_Props_Bottle_E
v 0.020626 0.178832 -0.020664
v -0.000042 0.178832 -0.029225
v 0.029187 0.178832 0.000005
v 0.012958 0.186895 -0.012995
v 0.025575 0.168728 -0.025612
v 0.027624 0.159140 -0.027661
v 0.036186 0.168728 0.000005
v -0.000042 0.168728 -0.036223
v -0.025659 0.168728 -0.025612
v -0.000042 0.159140 -0.039121
v -0.027708 0.159140 -0.027661
v -0.000042 0.004812 -0.039121
v -0.000042 0.000000 -0.035045
v 0.027624 0.004812 -0.027661
v -0.027708 0.004812 -0.027661
v -0.024826 0.000000 -0.024779
v -0.039168 0.004812 0.000005
v -0.035092 0.000000 0.000005
v -0.027708 0.004812 0.027671
v -0.039168 0.159140 0.000005
v -0.036270 0.168728 0.000005
v -0.027708 0.159140 0.027671
v -0.025659 0.168728 0.025622
v -0.000042 0.159140 0.039131
v -0.000042 0.168728 0.036233
v 0.027624 0.159140 0.027671
v -0.000042 0.004812 0.039131
v -0.000042 0.000000 0.035054
v 0.027624 0.004812 0.027671
v 0.024742 0.000000 0.024789
v 0.039084 0.004812 0.000005
v 0.035008 0.000000 0.000005
v 0.039084 0.159140 0.000005
v 0.024742 0.000000 -0.024779
v -0.000042 0.000000 0.000005
v -0.024826 0.000000 0.024789
v 0.025575 0.168728 0.025622
v 0.020626 0.178832 0.020673
v -0.000042 0.178832 0.029234
v 0.012958 0.186895 0.013005
v 0.009590 0.197031 0.009637
v -0.000042 0.186895 0.018390
v 0.018343 0.186895 0.000005
v 0.013580 0.197031 0.000005
v 0.009590 0.197031 -0.009628
v 0.010291 0.225466 0.000005
v 0.007264 0.225466 0.007311
v 0.007264 0.225466 -0.007302
v 0.007591 0.257104 0.000005
v 0.008662 0.258819 0.000005
v 0.005355 0.257104 -0.005393
v 0.005355 0.257104 0.005402
v 0.006113 0.258819 0.006159
v -0.000042 0.257104 0.007638
v -0.000042 0.258819 0.008709
v -0.005439 0.257104 0.005402
v -0.000042 0.225466 0.010338
v -0.000042 0.197031 0.013627
v -0.007348 0.225466 0.007311
v -0.009674 0.197031 0.009637
v -0.010375 0.225466 0.000005
v -0.013664 0.197031 0.000005
v -0.007348 0.225466 -0.007302
v -0.007675 0.257104 0.000005
v -0.008746 0.258819 0.000005
v -0.005439 0.257104 -0.005393
v -0.006196 0.258819 -0.006150
v -0.000042 0.257104 -0.007628
v -0.000042 0.258819 -0.008699
v -0.000042 0.225466 -0.010328
v -0.000042 0.197031 -0.013617
v -0.009674 0.197031 -0.009628
v -0.000042 0.186895 -0.018380
v -0.013042 0.186895 -0.012995
v -0.018427 0.186895 0.000005
v -0.020710 0.178832 -0.020664
v -0.029271 0.178832 0.000005
v -0.020710 0.178832 0.020673
v -0.013042 0.186895 0.013005
v 0.006113 0.258819 -0.006150
v -0.000042 0.258819 -0.010361
v -0.000042 0.260534 -0.011430
v 0.007287 0.258819 -0.007325
v -0.007371 0.258819 -0.007325
v -0.008128 0.260534 -0.008081
v -0.010407 0.258819 0.000005
v -0.011477 0.260534 0.000005
v -0.007371 0.258819 0.007334
v -0.008128 0.260534 0.008091
v -0.000042 0.258819 0.010370
v -0.006196 0.258819 0.006159
v -0.000042 0.260534 0.011440
v 0.007287 0.258819 0.007334
v 0.008044 0.260534 0.008091
v 0.010323 0.258819 0.000005
v 0.011393 0.260534 0.000005
v 0.008044 0.260534 -0.008081
v 0.011393 0.282145 0.000005
v 0.010323 0.283860 0.000005
v 0.008044 0.282145 -0.008081
v 0.008044 0.282145 0.008091
v 0.007287 0.283860 0.007334
v -0.000042 0.282145 0.011440
v -0.000042 0.283860 0.010370
v -0.008128 0.282145 0.008091
v -0.007371 0.283860 0.007334
v -0.011477 0.282145 0.000005
v -0.010407 0.283860 0.000005
v -0.008128 0.282145 -0.008081
v -0.007371 0.283860 -0.007325
v -0.000042 0.282145 -0.011430
v -0.000042 0.283860 -0.010361
v 0.007287 0.283860 -0.007325
v -0.000042 0.283860 0.000005
vn -0.0000 0.4204 -0.9073
vn -0.0000 0.6758 -0.7371
vn 0.5212 0.6758 -0.5212
vn 0.6416 0.4204 -0.6416
vn -0.0000 0.6640 -0.7478
vn 0.5288 0.6640 -0.5288
vn 0.7371 0.6758 -0.0000
vn 0.9073 0.4204 -0.0000
vn 0.7478 0.6640 -0.0000
vn 0.7000 0.1413 -0.7000
vn -0.0000 0.1413 -0.9900
vn 0.9900 0.1413 -0.0000
vn -0.6416 0.4204 -0.6416
vn -0.7000 0.1413 -0.7000
vn -0.5212 0.6758 -0.5212
vn -0.6700 -0.3197 -0.6700
vn -0.0000 -0.3197 -0.9475
vn 0.6700 -0.3197 -0.6700
vn -0.0000 -0.8666 -0.4991
vn -0.3529 -0.8666 -0.3529
vn 0.3529 -0.8666 -0.3529
vn -0.4991 -0.8666 -0.0000
vn -0.9475 -0.3197 -0.0000
vn -0.9900 0.1413 -0.0000
vn -0.3529 -0.8666 0.3529
vn -0.6700 -0.3197 0.6700
vn -0.7000 0.1413 0.7000
vn -0.6416 0.4204 0.6416
vn -0.9073 0.4204 -0.0000
vn -0.0000 0.4204 0.9073
vn -0.0000 0.1413 0.9900
vn -0.0000 -0.3197 0.9475
vn 0.6416 0.4204 0.6416
vn 0.7000 0.1413 0.7000
vn 0.6700 -0.3197 0.6700
vn -0.0000 -0.8666 0.4991
vn 0.3529 -0.8666 0.3529
vn 0.4991 -0.8666 -0.0000
vn 0.9475 -0.3197 -0.0000
vn -0.0000 -1.0000 -0.0000
vn 0.5212 0.6758 0.5212
vn -0.0000 0.6758 0.7371
vn 0.5288 0.6640 0.5288
vn -0.0000 0.6640 0.7478
vn 0.9586 0.2846 -0.0000
vn 0.6779 0.2846 0.6779
vn -0.0000 0.2846 0.9586
vn 0.6779 0.2846 -0.6779
vn 0.9950 0.1003 -0.0000
vn 0.7035 0.1003 0.7035
vn 0.7035 0.1003 -0.7035
vn 0.9672 -0.2540 -0.0000
vn 0.6839 -0.2540 0.6839
vn 0.6839 -0.2540 -0.6839
vn 0.3820 -0.9242 -0.0000
vn 0.2701 -0.9242 0.2701
vn 0.2701 -0.9242 -0.2701
vn -0.0000 -0.9242 0.3820
vn -0.0000 -0.2540 0.9672
vn -0.0000 0.1003 0.9950
vn -0.2701 -0.9242 0.2701
vn -0.6839 -0.2540 0.6839
vn -0.7035 0.1003 0.7035
vn -0.6779 0.2846 0.6779
vn -0.9950 0.1003 -0.0000
vn -0.9586 0.2846 -0.0000
vn -0.9672 -0.2540 -0.0000
vn -0.7035 0.1003 -0.7035
vn -0.6779 0.2846 -0.6779
vn -0.6839 -0.2540 -0.6839
vn -0.3820 -0.9242 -0.0000
vn -0.2701 -0.9242 -0.2701
vn -0.0000 -0.9242 -0.3820
vn -0.0000 -0.2540 -0.9672
vn -0.0000 0.1003 -0.9950
vn -0.0000 0.2846 -0.9586
vn -0.5288 0.6640 -0.5288
vn -0.7478 0.6640 -0.0000
vn -0.7371 0.6758 -0.0000
vn -0.5212 0.6758 0.5212
vn -0.5288 0.6640 0.5288
vn -0.0000 -0.8238 -0.5669
vn 0.4009 -0.8238 -0.4009
vn -0.4009 -0.8238 -0.4009
vn -0.6830 -0.2590 -0.6830
vn -0.0000 -0.2590 -0.9659
vn 0.6830 -0.2590 -0.6830
vn -0.9659 -0.2590 -0.0000
vn -0.5669 -0.8238 -0.0000
vn -0.6830 -0.2590 0.6830
vn -0.4009 -0.8238 0.4009
vn -0.0000 -0.2590 0.9659
vn -0.0000 -0.8238 0.5669
vn 0.6830 -0.2590 0.6830
vn 0.4009 -0.8238 0.4009
vn 0.9659 -0.2590 -0.0000
vn 0.5669 -0.8238 -0.0000
vn 0.6830 0.2590 -0.6830
vn 0.9659 0.2590 -0.0000
vn 0.6830 0.2590 0.6830
vn 0.5669 0.8238 -0.0000
vn 0.4009 0.8238 0.4009
vn 0.4009 0.8238 -0.4009
vn -0.0000 0.8238 0.5669
vn -0.0000 0.2590 0.9659
vn -0.4009 0.8238 0.4009
vn -0.6830 0.2590 0.6830
vn -0.5669 0.8238 -0.0000
vn -0.9659 0.2590 -0.0000
vn -0.4009 0.8238 -0.4009
vn -0.6830 0.2590 -0.6830
vn -0.0000 0.8238 -0.5669
vn -0.0000 0.2590 -0.9659
vn -0.0000 1.0000 -0.0000
vt 0.649482 0.458820
vt 0.639619 0.458931
vt 0.638914 0.439913
vt 0.648505 0.438792
vt 0.624143 0.458720
vt 0.625589 0.441219
vt 0.635488 0.421213
vt 0.645128 0.418676
vt 0.621397 0.425094
vt 0.655683 0.438030
vt 0.656808 0.458782
vt 0.652504 0.416885
vt 0.648657 0.479182
vt 0.656002 0.479785
vt 0.638809 0.478321
vt 0.766221 0.483604
vt 0.766202 0.459902
vt 0.766040 0.436866
vt 0.771470 0.459885
vt 0.771672 0.483635
vt 0.771017 0.436850
vt 0.771772 0.508234
vt 0.765934 0.508208
vt 0.653032 0.501288
vt 0.771474 0.532605
vt 0.766160 0.532972
vt 0.646171 0.524427
vt 0.638097 0.520788
vt 0.645464 0.499605
vt 0.623223 0.545056
vt 0.632836 0.551447
vt 0.769567 0.558310
vt 0.638417 0.397969
vt 0.625504 0.375737
vt 0.634278 0.370208
vt 0.646056 0.394625
vt 0.765998 0.388514
vt 0.769447 0.362576
vt 0.774749 0.556193
vt 0.774749 0.364756
vt 0.771345 0.388900
vt 0.771424 0.413105
vt 0.765714 0.413094
vt 0.928964 0.009446
vt 0.950387 0.009446
vt 0.939675 0.035306
vt 0.913815 0.024594
vt 0.965536 0.024594
vt 0.965536 0.046017
vt 0.928964 0.061166
vt 0.913815 0.046017
vt 0.950387 0.061166
vt 0.628895 0.402585
vt 0.616318 0.385017
vt 0.616979 0.409236
vt 0.607827 0.396992
vt 0.545462 0.890406
vt 0.542604 0.882185
vt 0.550638 0.878720
vt 0.553764 0.888235
vt 0.538816 0.874950
vt 0.545305 0.869577
vt 0.546885 0.899213
vt 0.555673 0.897890
vt 0.522062 0.895533
vt 0.520670 0.889467
vt 0.522902 0.901791
vt 0.497529 0.899220
vt 0.496694 0.894839
vt 0.498045 0.903660
vt 0.282007 0.573690
vt 0.278058 0.577331
vt 0.277526 0.575821
vt 0.280441 0.573020
vt 0.281925 0.568287
vt 0.280453 0.568983
vt 0.272825 0.577146
vt 0.273429 0.575789
vt 0.495564 0.890525
vt 0.518796 0.883621
vt 0.269158 0.573426
vt 0.270657 0.572796
vt 0.518572 0.932668
vt 0.495564 0.925676
vt 0.496712 0.921403
vt 0.520487 0.926938
vt 0.538575 0.941868
vt 0.542430 0.934363
vt 0.521944 0.920865
vt 0.545358 0.926036
vt 0.497552 0.917034
vt 0.522849 0.914572
vt 0.547181 0.917233
vt 0.498060 0.912600
vt 0.269137 0.568318
vt 0.272688 0.564680
vt 0.273329 0.566089
vt 0.270494 0.568855
vt 0.278006 0.564595
vt 0.277462 0.566117
vt 0.498224 0.908131
vt 0.523172 0.908170
vt 0.547302 0.908197
vt 0.556446 0.908080
vt 0.555889 0.918218
vt 0.624632 0.476491
vt 0.554096 0.928195
vt 0.635526 0.496996
vt 0.622890 0.493294
vt 0.628206 0.515558
vt 0.615682 0.508050
vt 0.613386 0.534414
vt 0.604268 0.520371
vt 0.550594 0.938204
vt 0.545109 0.947220
vt 0.278511 0.563355
vt 0.283180 0.567763
vt 0.272154 0.563429
vt 0.271371 0.561804
vt 0.279221 0.561535
vt 0.284943 0.567078
vt 0.266467 0.567253
vt 0.268013 0.567868
vt 0.266331 0.574492
vt 0.267976 0.573894
vt 0.271490 0.579936
vt 0.272278 0.578329
vt 0.279090 0.580324
vt 0.278510 0.578580
vt 0.284943 0.575054
vt 0.283242 0.574236
vt 0.330805 0.633781
vt 0.330805 0.640770
vt 0.313547 0.640770
vt 0.313547 0.633781
vt 0.330805 0.626791
vt 0.313547 0.626791
vt 0.469001 0.608011
vt 0.475163 0.608075
vt 0.475818 0.609660
vt 0.468375 0.609676
vt 0.464599 0.603648
vt 0.462965 0.604403
vt 0.479495 0.603651
vt 0.481232 0.604375
vt 0.330805 0.619802
vt 0.313547 0.619802
vt 0.479585 0.597425
vt 0.481232 0.596698
vt 0.330805 0.668728
vt 0.330805 0.675717
vt 0.313547 0.675717
vt 0.313547 0.668728
vt 0.475268 0.592984
vt 0.475934 0.591390
vt 0.330805 0.661738
vt 0.313547 0.661738
vt 0.469043 0.593049
vt 0.468319 0.591297
vt 0.330805 0.654749
vt 0.313547 0.654749
vt 0.464572 0.597425
vt 0.462866 0.596785
vt 0.330805 0.647759
vt 0.313547 0.647759
vt 0.472090 0.600533
s 1
f 8/1/1 2/2/2 1/3/3 5/4/4
f 2/2/2 73/5/5 4/6/6 1/3/3
f 5/4/4 1/3/3 3/7/7 7/8/8
f 1/3/3 4/6/6 43/9/9 3/7/7
f 8/1/1 5/4/4 6/10/10 10/11/11
f 5/4/4 7/8/8 33/12/12 6/10/10
f 9/13/13 8/1/1 10/11/11 11/14/14
f 9/13/13 76/15/15 2/2/2 8/1/1
f 15/16/16 11/14/14 10/11/11 12/17/17
f 12/17/17 10/11/11 6/10/10 14/18/18
f 13/19/19 16/20/20 15/16/16 12/17/17
f 34/21/21 13/19/19 12/17/17 14/18/18
f 16/20/20 18/22/22 17/23/23 15/16/16
f 17/23/23 20/24/24 11/14/14 15/16/16
f 18/22/22 36/25/25 19/26/26 17/23/23
f 19/26/26 22/27/27 20/24/24 17/23/23
f 23/28/28 21/29/29 20/24/24 22/27/27
f 21/29/29 9/13/13 11/14/14 20/24/24
f 25/30/30 23/28/28 22/27/27 24/31/31
f 27/32/32 24/31/31 22/27/27 19/26/26
f 37/33/33 25/34/30 24/35/31 26/36/34
f 29/37/35 26/36/34 24/35/31 27/38/32
f 36/25/25 28/39/36 27/32/32 19/26/26
f 28/40/36 30/41/37 29/37/35 27/38/32
f 30/41/37 32/42/38 31/43/39 29/37/35
f 31/43/39 33/12/12 26/36/34 29/37/35
f 32/42/38 34/21/21 14/18/18 31/43/39
f 14/18/18 6/10/10 33/12/12 31/43/39
f 7/8/8 37/33/33 26/36/34 33/12/12
f 34/44/21 32/45/38 35/46/40 13/47/19
f 30/48/37 28/49/36 35/46/40 32/45/38
f 18/50/22 16/51/20 13/47/19 35/46/40
f 36/52/25 18/50/22 35/46/40 28/49/36
f 37/33/33 38/53/41 39/54/42 25/34/30
f 7/8/8 3/7/7 38/53/41 37/33/33
f 3/7/7 43/9/9 40/55/43 38/53/41
f 38/53/41 40/55/43 42/56/44 39/54/42
f 44/57/45 41/58/46 40/59/43 43/60/9
f 41/58/46 58/61/47 42/62/44 40/59/43
f 45/63/48 44/57/45 43/60/9 4/64/6
f 44/57/45 46/65/49 47/66/50 41/58/46
f 45/63/48 48/67/51 46/65/49 44/57/45
f 46/65/49 49/68/52 52/69/53 47/66/50
f 48/67/51 51/70/54 49/68/52 46/65/49
f 50/71/55 53/72/56 52/73/53 49/74/52
f 80/75/57 50/71/55 49/74/52 51/76/54
f 53/72/56 55/77/58 54/78/59 52/73/53
f 47/66/50 52/69/53 54/79/59 57/80/60
f 55/77/58 91/81/61 56/82/62 54/78/59
f 57/83/60 54/84/59 56/85/62 59/86/63
f 58/87/47 57/83/60 59/86/63 60/88/64
f 41/58/46 47/66/50 57/80/60 58/61/47
f 60/88/64 59/86/63 61/89/65 62/90/66
f 59/86/63 56/85/62 64/91/67 61/89/65
f 62/90/66 61/89/65 63/92/68 72/93/69
f 61/89/65 64/91/67 66/94/70 63/92/68
f 65/95/71 67/96/72 66/97/70 64/98/67
f 91/81/61 65/95/71 64/98/67 56/82/62
f 67/96/72 69/99/73 68/100/74 66/97/70
f 63/92/68 66/94/70 68/101/74 70/102/75
f 69/99/73 80/75/57 51/76/54 68/100/74
f 70/102/75 68/101/74 51/70/54 48/67/51
f 71/103/76 70/102/75 48/67/51 45/63/48
f 72/93/69 63/92/68 70/102/75 71/103/76
f 72/93/69 71/103/76 73/104/5 74/105/77
f 71/103/76 45/63/48 4/64/6 73/104/5
f 76/15/15 74/106/77 73/5/5 2/2/2
f 62/90/66 72/93/69 74/105/77 75/107/78
f 77/108/79 75/109/78 74/106/77 76/15/15
f 21/29/29 77/108/79 76/15/15 9/13/13
f 23/28/28 78/110/80 77/108/79 21/29/29
f 78/110/80 79/111/81 75/109/78 77/108/79
f 25/30/30 39/112/42 78/110/80 23/28/28
f 39/112/42 42/113/44 79/111/81 78/110/80
f 58/87/47 60/88/64 79/114/81 42/115/44
f 60/88/64 62/90/66 75/107/78 79/114/81
f 80/75/57 69/99/73 81/116/82 83/117/83
f 69/99/73 67/96/72 84/118/84 81/116/82
f 85/119/85 82/120/86 81/116/82 84/118/84
f 82/120/86 97/121/87 83/117/83 81/116/82
f 87/122/88 85/119/85 84/118/84 86/123/89
f 67/96/72 65/95/71 86/123/89 84/118/84
f 89/124/90 87/122/88 86/123/89 88/125/91
f 65/95/71 91/81/61 88/125/91 86/123/89
f 92/126/92 89/124/90 88/125/91 90/127/93
f 91/81/61 55/77/58 90/127/93 88/125/91
f 94/128/94 92/126/92 90/127/93 93/129/95
f 55/77/58 53/72/56 93/129/95 90/127/93
f 96/130/96 94/128/94 93/129/95 95/131/97
f 53/72/56 50/71/55 95/131/97 93/129/95
f 97/121/87 96/130/96 95/131/97 83/117/83
f 50/71/55 80/75/57 83/117/83 95/131/97
f 96/132/96 97/133/87 100/134/98 98/135/99
f 94/136/94 96/132/96 98/135/99 101/137/100
f 99/138/101 102/139/102 101/140/100 98/141/99
f 113/142/103 99/138/101 98/141/99 100/143/98
f 102/139/102 104/144/104 103/145/105 101/140/100
f 92/146/92 94/136/94 101/137/100 103/147/105
f 104/144/104 106/148/106 105/149/107 103/145/105
f 89/150/90 92/151/92 103/152/105 105/153/107
f 106/148/106 108/154/108 107/155/109 105/149/107
f 87/156/88 89/150/90 105/153/107 107/157/109
f 108/154/108 110/158/110 109/159/111 107/155/109
f 85/160/85 87/156/88 107/157/109 109/161/111
f 110/158/110 112/162/112 111/163/113 109/159/111
f 82/164/86 85/160/85 109/161/111 111/165/113
f 112/162/112 113/142/103 100/143/98 111/163/113
f 97/133/87 82/164/86 111/165/113 100/134/98
f 99/138/101 113/142/103 112/162/112 114/166/114
f 110/158/110 108/154/108 114/166/114 112/162/112
f 104/144/104 102/139/102 99/138/101 114/166/114
f 108/154/108 106/148/106 104/144/104 114/166/114
