# Blender 4.0.2
# www.blender.org
mtllib Club_Props_Bottle_F.mtl
o Club_Props_Bottle_F
v -0.000033 0.000284 -0.029732
v 0.018508 0.000284 -0.024003
v -0.000033 0.150284 -0.038691
v -0.018574 0.000284 -0.024003
v -0.000033 0.000142 0.000268
v -0.030033 0.000284 -0.009003
v -0.018574 0.000000 0.024538
v 0.018508 0.000000 0.024538
v 0.029967 0.000284 -0.009003
v 0.038926 0.150284 -0.011771
v 0.029967 0.000000 0.009538
v 0.038926 0.150284 0.012307
v 0.024045 0.150284 0.031786
v 0.040923 0.151449 0.013006
v 0.042920 0.150011 0.013705
v 0.040923 0.151449 -0.012471
v 0.025240 0.151453 0.033563
v 0.026435 0.150019 0.035339
v -0.000033 0.151455 0.041382
v -0.000033 0.150284 0.039227
v -0.000033 0.150023 0.043538
v -0.025305 0.151453 0.033563
v -0.024110 0.150284 0.031786
v -0.026500 0.150019 0.035340
v -0.040988 0.151449 0.013006
v -0.038992 0.150284 0.012307
v -0.042985 0.150011 0.013705
v -0.040988 0.151449 -0.012471
v -0.038992 0.150284 -0.011771
v -0.042984 0.150011 -0.013172
v -0.025305 0.151452 -0.033027
v -0.024110 0.150284 -0.031251
v -0.026500 0.150018 -0.034804
v -0.000033 0.151455 -0.040847
v -0.000033 0.150023 -0.043002
v 0.025240 0.151452 -0.033027
v 0.024045 0.150284 -0.031251
v 0.026435 0.150018 -0.034804
v 0.042919 0.150011 -0.013172
v 0.020376 -0.000787 -0.026774
v 0.018461 -0.003367 -0.024241
v -0.000033 -0.000794 -0.033087
v 0.033102 -0.000763 -0.010129
v 0.029997 -0.003346 -0.009159
v 0.033082 -0.001088 0.010598
v 0.029979 -0.003640 0.009625
v 0.020365 -0.001090 0.027295
v 0.018452 -0.003642 0.024755
v -0.000033 -0.001098 0.033603
v -0.000033 -0.003649 0.030470
v -0.020430 -0.001090 0.027295
v -0.018517 -0.003642 0.024755
v -0.033148 -0.001088 0.010598
v -0.030044 -0.003640 0.009625
v -0.033167 -0.000763 -0.010129
v -0.030062 -0.003346 -0.009159
v -0.020441 -0.000787 -0.026774
v -0.018526 -0.003367 -0.024241
v -0.000033 -0.003374 -0.029959
v -0.000033 -0.005117 0.000224
v -0.030033 0.000000 0.009538
v -0.000033 0.000000 0.030268
vn -0.0000 1.0000 0.0061
vn -0.7088 0.6623 0.2428
vn -0.4266 0.6656 0.6123
vn -0.0000 0.6672 0.7449
vn -0.4660 0.5834 0.6652
vn -0.0000 0.5823 0.8130
vn 0.4266 0.6656 0.6123
vn 0.4660 0.5834 0.6652
vn 0.7088 0.6623 0.2429
vn 0.4266 0.6690 -0.6087
vn 0.7062 0.6679 -0.2350
vn -0.4266 0.6690 -0.6087
vn -0.0000 0.6698 -0.7425
vn -0.7062 0.6679 -0.2350
vn -0.7683 0.5854 0.2588
vn -0.7684 0.5854 -0.2587
vn -0.4660 0.5833 -0.6653
vn 0.1448 0.9883 0.0472
vn 0.1449 0.9883 -0.0472
vn 0.0853 0.9893 0.1179
vn 0.8673 0.4024 0.2929
vn 0.8672 0.4025 -0.2931
vn 0.5232 0.4066 0.7489
vn -0.0000 0.9899 0.1415
vn -0.0000 0.4092 0.9125
vn -0.0000 0.5822 -0.8130
vn 0.4660 0.5833 -0.6653
vn -0.0853 0.9893 0.1179
vn -0.5232 0.4066 0.7489
vn 0.7684 0.5854 -0.2587
vn -0.1449 0.9883 0.0472
vn -0.8673 0.4024 0.2929
vn 0.7683 0.5854 0.2588
vn -0.1449 0.9883 -0.0472
vn -0.8672 0.4025 -0.2931
vn -0.0854 0.9893 -0.1180
vn -0.5230 0.4066 -0.7491
vn -0.0000 0.9899 -0.1416
vn -0.0000 0.4091 -0.9125
vn 0.0854 0.9893 -0.1180
vn 0.5230 0.4066 -0.7491
vn -0.0000 -0.4280 -0.9038
vn 0.5178 -0.4305 -0.7393
vn 0.8536 -0.4326 -0.2902
vn 0.3807 -0.9146 -0.1364
vn 0.2337 -0.9113 -0.3391
vn -0.0000 -0.9121 -0.4100
vn 0.3813 -0.9162 0.1234
vn 0.8527 -0.4381 0.2844
vn 0.2291 -0.9160 0.3292
vn 0.5174 -0.4327 0.7383
vn -0.0000 -0.9132 0.4075
vn -0.0000 -0.4305 0.9026
vn -0.2291 -0.9160 0.3292
vn -0.5174 -0.4327 0.7383
vn -0.3813 -0.9162 0.1234
vn -0.8527 -0.4381 0.2844
vn -0.3807 -0.9146 -0.1364
vn -0.8536 -0.4325 -0.2902
vn -0.2337 -0.9113 -0.3391
vn -0.5178 -0.4305 -0.7393
vn -0.0000 -1.0000 -0.0059
vt 0.033509 0.937938
vt 0.057467 0.945342
vt 0.048316 0.957321
vt 0.033509 0.961896
vt 0.168248 0.805210
vt 0.152887 0.803159
vt 0.166268 0.683897
vt 0.186217 0.686559
vt 0.183528 0.807800
vt 0.206060 0.689923
vt 0.018702 0.957321
vt 0.009551 0.945342
vt 0.018702 0.918555
vt 0.009551 0.930534
vt 0.048316 0.918555
vt 0.033509 0.913980
vt 0.057467 0.930534
vt 0.137882 0.801718
vt 0.146782 0.682025
vt 0.123085 0.801118
vt 0.127583 0.680952
vt 0.108013 0.800878
vt 0.108010 0.680641
vt 0.839471 0.036249
vt 0.827831 0.051271
vt 0.825963 0.050648
vt 0.838414 0.034605
vt 0.827790 0.070656
vt 0.825919 0.071286
vt 0.823967 0.049980
vt 0.837284 0.032848
vt 0.823928 0.071955
vt 0.838098 0.088442
vt 0.836824 0.090103
vt 0.839297 0.086879
vt 0.857958 0.093791
vt 0.857831 0.095760
vt 0.857697 0.097855
vt 0.876699 0.088794
vt 0.877773 0.090442
vt 0.878922 0.092202
vt 0.888314 0.073770
vt 0.890171 0.074377
vt 0.892156 0.075027
vt 0.888308 0.054448
vt 0.890172 0.053816
vt 0.892156 0.053146
vt 0.876803 0.038254
vt 0.878000 0.036693
vt 0.879272 0.035035
vt 0.858302 0.029366
vt 0.858440 0.027278
vt 0.858171 0.031330
vt 0.503861 0.611830
vt 0.523687 0.730893
vt 0.501793 0.734100
vt 0.486982 0.614312
vt 0.480193 0.736372
vt 0.470343 0.616087
vt 0.872975 0.082714
vt 0.881622 0.070397
vt 0.884818 0.071538
vt 0.874929 0.085475
vt 0.881544 0.054956
vt 0.884818 0.053930
vt 0.858760 0.087096
vt 0.858802 0.090517
vt 0.458770 0.737692
vt 0.453806 0.616846
vt 0.844504 0.082060
vt 0.842539 0.084840
vt 0.437052 0.738090
vt 0.437048 0.617146
vt 0.835705 0.069315
vt 0.832428 0.070342
vt 0.414930 0.737595
vt 0.420001 0.616755
vt 0.835660 0.053827
vt 0.832460 0.052666
vt 0.392844 0.736234
vt 0.402982 0.615716
vt 0.844495 0.041558
vt 0.842578 0.038725
vt 0.371236 0.734019
vt 0.386307 0.614013
vt 0.858670 0.037047
vt 0.858700 0.033665
vt 0.349999 0.730908
vt 0.369892 0.611871
vt 0.872798 0.042230
vt 0.874773 0.039469
vt 0.328665 0.726834
vt 0.353461 0.608708
vt 0.520632 0.608708
vt 0.545439 0.726832
vt 0.858679 0.062119
vt 0.047329 0.805208
vt 0.032479 0.807800
vt 0.009959 0.689921
vt 0.029243 0.686555
vt 0.062036 0.803471
vt 0.048302 0.684008
vt 0.077045 0.802072
vt 0.067794 0.682191
vt 0.092518 0.801203
vt 0.087888 0.681063
s 1
f 5/1/1 9/2/2 2/3/3 1/4/4
f 1/5/4 2/6/3 37/7/5 3/8/6
f 4/9/7 1/5/4 3/8/6 32/10/8
f 5/1/1 1/4/4 4/11/7 6/12/9
f 7/13/10 5/1/1 6/12/9 61/14/11
f 8/15/12 5/1/1 7/13/10 62/16/13
f 9/2/2 5/1/1 8/15/12 11/17/14
f 2/6/3 9/18/2 10/19/15 37/7/5
f 9/18/2 11/20/14 12/21/16 10/19/15
f 11/20/14 8/22/12 13/23/17 12/21/16
f 10/24/15 12/25/16 14/26/18 16/27/19
f 12/25/16 13/28/17 17/29/20 14/26/18
f 16/27/19 14/26/18 15/30/21 39/31/22
f 14/26/18 17/29/20 18/32/23 15/30/21
f 17/29/20 19/33/24 21/34/25 18/32/23
f 13/28/17 20/35/26 19/33/24 17/29/20
f 20/35/26 23/36/27 22/37/28 19/33/24
f 19/33/24 22/37/28 24/38/29 21/34/25
f 23/36/27 26/39/30 25/40/31 22/37/28
f 22/37/28 25/40/31 27/41/32 24/38/29
f 26/39/30 29/42/33 28/43/34 25/40/31
f 25/40/31 28/43/34 30/44/35 27/41/32
f 29/42/33 32/45/8 31/46/36 28/43/34
f 28/43/34 31/46/36 33/47/37 30/44/35
f 32/45/8 3/48/6 34/49/38 31/46/36
f 31/46/36 34/49/38 35/50/39 33/47/37
f 34/49/38 36/51/40 38/52/41 35/50/39
f 3/48/6 37/53/5 36/51/40 34/49/38
f 37/53/5 10/24/15 16/27/19 36/51/40
f 36/51/40 16/27/19 39/31/22 38/52/41
f 42/54/42 35/55/39 38/56/41 40/57/43
f 40/57/43 38/56/41 39/58/22 43/59/44
f 44/60/45 41/61/46 40/62/43 43/63/44
f 41/61/46 59/64/47 42/65/42 40/62/43
f 46/66/48 44/60/45 43/63/44 45/67/49
f 43/59/44 39/58/22 15/68/21 45/69/49
f 48/70/50 46/66/48 45/67/49 47/71/51
f 45/69/49 15/68/21 18/72/23 47/73/51
f 50/74/52 48/70/50 47/71/51 49/75/53
f 47/73/51 18/72/23 21/76/25 49/77/53
f 52/78/54 50/74/52 49/75/53 51/79/55
f 49/77/53 21/76/25 24/80/29 51/81/55
f 54/82/56 52/78/54 51/79/55 53/83/57
f 51/81/55 24/80/29 27/84/32 53/85/57
f 56/86/58 54/82/56 53/83/57 55/87/59
f 53/85/57 27/84/32 30/88/35 55/89/59
f 58/90/60 56/86/58 55/87/59 57/91/61
f 55/89/59 30/88/35 33/92/37 57/93/61
f 59/64/47 58/90/60 57/91/61 42/65/42
f 57/94/61 33/95/37 35/55/39 42/54/42
f 56/86/58 58/90/60 59/64/47 60/96/62
f 41/61/46 44/60/45 60/96/62 59/64/47
f 46/66/48 48/70/50 60/96/62 44/60/45
f 50/74/52 52/78/54 60/96/62 48/70/50
f 54/82/56 56/86/58 60/96/62 52/78/54
f 6/97/9 4/98/7 32/99/8 29/100/33
f 61/101/11 6/97/9 29/100/33 26/102/30
f 7/103/10 61/101/11 26/102/30 23/104/27
f 62/105/13 7/103/10 23/104/27 20/106/26
f 8/22/12 62/105/13 20/106/26 13/23/17
