# Blender 4.0.2
# www.blender.org
mtllib Club_Props_Bottle_D.mtl
o Club_Props_Bottle_D
v 0.036659 0.164573 -0.036766
v -0.000023 0.164573 -0.051960
v 0.051853 0.164573 -0.000084
v 0.023049 0.172635 -0.023156
v 0.045442 0.154469 -0.045549
v 0.049078 0.144881 -0.049186
v 0.064274 0.154469 -0.000084
v -0.000023 0.154469 -0.064381
v -0.045488 0.154469 -0.045549
v -0.000023 0.144881 -0.069524
v -0.049125 0.144881 -0.049186
v -0.000023 0.004812 -0.069524
v -0.000023 0.000000 -0.062290
v 0.049078 0.004812 -0.049186
v -0.049125 0.004812 -0.049186
v -0.044009 0.000000 -0.044070
v -0.069463 0.004812 -0.000084
v -0.062229 0.000000 -0.000084
v -0.049124 0.004812 0.049017
v -0.069463 0.144881 -0.000084
v -0.064320 0.154469 -0.000084
v -0.049124 0.144881 0.049017
v -0.045488 0.154469 0.045381
v -0.000023 0.144881 0.069356
v -0.000023 0.154469 0.064213
v 0.049078 0.144881 0.049017
v -0.000023 0.004812 0.069356
v -0.000023 0.000000 0.062122
v 0.049078 0.004812 0.049017
v 0.043963 0.000000 0.043902
v 0.069417 0.004812 -0.000084
v 0.062183 0.000000 -0.000084
v 0.069417 0.144881 -0.000084
v 0.043963 0.000000 -0.044070
v -0.000023 0.000000 -0.000084
v -0.044009 0.000000 0.043902
v 0.045442 0.154469 0.045381
v 0.036659 0.164573 0.036598
v -0.000023 0.164573 0.051792
v 0.023049 0.172635 0.022988
v 0.017072 0.182771 0.017011
v -0.000023 0.172635 0.032545
v 0.032606 0.172635 -0.000084
v 0.024153 0.182771 -0.000084
v 0.017072 0.182771 -0.017179
v 0.018316 0.201372 -0.000084
v 0.012944 0.201372 0.012883
v 0.012944 0.201372 -0.013051
v 0.018373 0.219078 -0.000084
v 0.020954 0.220793 -0.000084
v 0.012985 0.219078 -0.013092
v 0.012985 0.219078 0.012924
v 0.014810 0.220793 0.014749
v -0.000023 0.219078 0.018312
v -0.000023 0.220793 0.020893
v -0.013031 0.219078 0.012924
v -0.000023 0.201372 0.018254
v -0.000023 0.182771 0.024092
v -0.012990 0.201372 0.012883
v -0.017118 0.182771 0.017011
v -0.018362 0.201372 -0.000084
v -0.024199 0.182771 -0.000084
v -0.012990 0.201372 -0.013051
v -0.018420 0.219078 -0.000084
v -0.021000 0.220793 -0.000084
v -0.013031 0.219078 -0.013092
v -0.014856 0.220793 -0.014917
v -0.000023 0.219078 -0.018481
v -0.000023 0.220793 -0.021061
v -0.000023 0.201372 -0.018423
v -0.000023 0.182771 -0.024260
v -0.017118 0.182771 -0.017179
v -0.000023 0.172635 -0.032713
v -0.023095 0.172635 -0.023156
v -0.032652 0.172635 -0.000084
v -0.036705 0.164573 -0.036766
v -0.051899 0.164573 -0.000084
v -0.036705 0.164573 0.036598
v -0.023095 0.172635 0.022988
v 0.014810 0.220793 -0.014917
v -0.000023 0.220793 -0.025066
v -0.000023 0.222509 -0.027644
v 0.017642 0.220793 -0.017749
v -0.017688 0.220793 -0.017749
v -0.019511 0.222509 -0.019572
v -0.025005 0.220793 -0.000084
v -0.027583 0.222509 -0.000084
v -0.017688 0.220793 0.017581
v -0.019511 0.222509 0.019404
v -0.000023 0.220793 0.024898
v -0.014856 0.220793 0.014749
v -0.000023 0.222509 0.027476
v 0.017642 0.220793 0.017581
v 0.019465 0.222509 0.019404
v 0.024959 0.220793 -0.000084
v 0.027537 0.222509 -0.000084
v 0.019465 0.222509 -0.019572
v 0.027537 0.244119 -0.000084
v 0.024959 0.245835 -0.000084
v 0.019465 0.244119 -0.019572
v 0.019465 0.244119 0.019404
v 0.017642 0.245835 0.017581
v -0.000023 0.244119 0.027476
v -0.000023 0.245835 0.024898
v -0.019511 0.244119 0.019404
v -0.017688 0.245835 0.017581
v -0.027583 0.244119 -0.000084
v -0.025005 0.245835 -0.000084
v -0.019511 0.244119 -0.019572
v -0.017688 0.245835 -0.017749
v -0.000023 0.244119 -0.027644
v -0.000023 0.245835 -0.025066
v 0.017642 0.245835 -0.017749
v -0.000023 0.245835 -0.000084
vn -0.0000 0.6139 -0.7894
vn -0.0000 0.8423 -0.5391
vn 0.3812 0.8423 -0.3812
vn 0.5582 0.6139 -0.5582
vn -0.0000 0.8329 -0.5534
vn 0.3913 0.8329 -0.3913
vn 0.5391 0.8423 -0.0000
vn 0.7894 0.6139 -0.0000
vn 0.5534 0.8329 -0.0000
vn 0.6880 0.2307 -0.6880
vn -0.0000 0.2307 -0.9730
vn 0.9730 0.2307 -0.0000
vn -0.5582 0.6139 -0.5582
vn -0.6880 0.2307 -0.6880
vn -0.3812 0.8423 -0.3812
vn -0.6384 -0.4300 -0.6384
vn -0.0000 -0.4300 -0.9028
vn 0.6384 -0.4300 -0.6384
vn -0.0000 -0.9358 -0.3525
vn -0.2493 -0.9358 -0.2493
vn 0.2493 -0.9358 -0.2493
vn -0.3525 -0.9358 -0.0000
vn -0.9028 -0.4300 -0.0000
vn -0.9730 0.2307 -0.0000
vn -0.2493 -0.9358 0.2493
vn -0.6384 -0.4300 0.6384
vn -0.6880 0.2307 0.6880
vn -0.5582 0.6139 0.5582
vn -0.7894 0.6139 -0.0000
vn -0.0000 0.6139 0.7894
vn -0.0000 0.2307 0.9730
vn -0.0000 -0.4300 0.9028
vn 0.5582 0.6139 0.5582
vn 0.6880 0.2307 0.6880
vn 0.6384 -0.4300 0.6384
vn -0.0000 -0.9358 0.3525
vn 0.2493 -0.9358 0.2493
vn 0.3525 -0.9358 -0.0000
vn 0.9028 -0.4300 -0.0000
vn -0.0000 -1.0000 -0.0000
vn 0.3812 0.8423 0.3812
vn -0.0000 0.8423 0.5391
vn 0.3913 0.8329 0.3913
vn -0.0000 0.8329 0.5534
vn 0.8659 0.5003 -0.0000
vn 0.6123 0.5003 0.6123
vn -0.0000 0.5003 0.8659
vn 0.6123 0.5003 -0.6123
vn 0.9878 0.1557 -0.0000
vn 0.6985 0.1557 0.6985
vn 0.6985 0.1557 -0.6985
vn 0.8483 -0.5295 -0.0000
vn 0.5999 -0.5295 0.5999
vn 0.5999 -0.5295 -0.5999
vn 0.2205 -0.9754 -0.0000
vn 0.1559 -0.9754 0.1559
vn 0.1559 -0.9754 -0.1559
vn -0.0000 -0.9754 0.2205
vn -0.0000 -0.5295 0.8483
vn -0.0000 0.1557 0.9878
vn -0.1559 -0.9754 0.1559
vn -0.5999 -0.5295 0.5999
vn -0.6985 0.1557 0.6985
vn -0.6123 0.5003 0.6123
vn -0.9878 0.1557 -0.0000
vn -0.8659 0.5003 -0.0000
vn -0.8483 -0.5295 -0.0000
vn -0.6985 0.1557 -0.6985
vn -0.6123 0.5003 -0.6123
vn -0.5999 -0.5295 -0.5999
vn -0.2205 -0.9754 -0.0000
vn -0.1559 -0.9754 -0.1559
vn -0.0000 -0.9754 -0.2205
vn -0.0000 -0.5295 -0.8483
vn -0.0000 0.1557 -0.9878
vn -0.0000 0.5003 -0.8659
vn -0.3913 0.8329 -0.3913
vn -0.5534 0.8329 -0.0000
vn -0.5391 0.8423 -0.0000
vn -0.3812 0.8423 0.3812
vn -0.3913 0.8329 0.3913
vn 0.6384 0.4300 -0.6384
vn 0.9028 0.4300 -0.0000
vn 0.6384 0.4300 0.6384
vn 0.3525 0.9358 -0.0000
vn 0.2493 0.9358 0.2493
vn 0.2493 0.9358 -0.2493
vn -0.0000 0.9358 0.3525
vn -0.0000 0.4300 0.9028
vn -0.2493 0.9358 0.2493
vn -0.6384 0.4300 0.6384
vn -0.3525 0.9358 -0.0000
vn -0.9028 0.4300 -0.0000
vn -0.2493 0.9358 -0.2493
vn -0.6384 0.4300 -0.6384
vn -0.0000 0.9358 -0.3525
vn -0.0000 0.4300 -0.9028
vn -0.0000 1.0000 -0.0000
vt 0.435211 0.548216
vt 0.435143 0.560329
vt 0.404527 0.561990
vt 0.402397 0.550727
vt 0.435613 0.580699
vt 0.407692 0.580160
vt 0.374587 0.570297
vt 0.370168 0.559222
vt 0.382190 0.589596
vt 0.401197 0.543593
vt 0.435163 0.540634
vt 0.367537 0.551991
vt 0.469596 0.550595
vt 0.470528 0.542888
vt 0.468013 0.562442
vt 0.480992 0.445942
vt 0.436000 0.444777
vt 0.392883 0.448129
vt 0.435846 0.437006
vt 0.481660 0.437464
vt 0.392068 0.440624
vt 0.526780 0.444157
vt 0.525759 0.451784
vt 0.506658 0.549307
vt 0.569233 0.450650
vt 0.568809 0.457799
vt 0.544387 0.563077
vt 0.540003 0.571075
vt 0.504515 0.557162
vt 0.578413 0.600712
vt 0.587213 0.592318
vt 0.616067 0.457425
vt 0.337927 0.574838
vt 0.305676 0.604813
vt 0.297149 0.597916
vt 0.333098 0.567715
vt 0.308050 0.462598
vt 0.257668 0.465421
vt 0.613122 0.449155
vt 0.260317 0.456389
vt 0.307275 0.455292
vt 0.349393 0.447475
vt 0.350585 0.454848
vt 0.923974 0.583993
vt 0.885953 0.583993
vt 0.904964 0.538097
vt 0.950860 0.557108
vt 0.859068 0.557108
vt 0.859068 0.519086
vt 0.923974 0.492201
vt 0.950860 0.519086
vt 0.885953 0.492201
vt 0.345402 0.584954
vt 0.320191 0.612881
vt 0.357229 0.600123
vt 0.341331 0.620683
vt 0.658943 0.805604
vt 0.645023 0.812688
vt 0.638756 0.804856
vt 0.654890 0.795687
vt 0.634650 0.822408
vt 0.626675 0.817729
vt 0.674299 0.801150
vt 0.672957 0.790828
vt 0.665355 0.821280
vt 0.654157 0.826339
vt 0.677501 0.818114
vt 0.670218 0.834974
vt 0.660704 0.839235
vt 0.679965 0.832277
vt 0.231819 0.787620
vt 0.231866 0.800478
vt 0.229525 0.799554
vt 0.229540 0.788609
vt 0.222731 0.778731
vt 0.221828 0.780983
vt 0.222854 0.809755
vt 0.221853 0.807396
vt 0.651232 0.844489
vt 0.644639 0.832570
vt 0.209992 0.809753
vt 0.210966 0.807460
vt 0.731571 0.834911
vt 0.724792 0.844489
vt 0.716986 0.839310
vt 0.723439 0.828167
vt 0.742183 0.826487
vt 0.733304 0.816031
vt 0.713400 0.822569
vt 0.720646 0.807781
vt 0.708483 0.835130
vt 0.702034 0.818907
vt 0.705949 0.802510
vt 0.699319 0.832412
vt 0.201020 0.800729
vt 0.200995 0.788007
vt 0.203302 0.788927
vt 0.203260 0.799802
vt 0.209983 0.778846
vt 0.210984 0.781184
vt 0.689748 0.831406
vt 0.689940 0.817275
vt 0.690256 0.799852
vt 0.690702 0.790035
vt 0.708037 0.792565
vt 0.464793 0.585098
vt 0.724836 0.798547
vt 0.501147 0.569368
vt 0.494022 0.589198
vt 0.532937 0.583085
vt 0.520516 0.600038
vt 0.563070 0.610824
vt 0.540914 0.620683
vt 0.739831 0.808441
vt 0.750901 0.822657
vt 0.208748 0.775909
vt 0.223930 0.775786
vt 0.198061 0.786782
vt 0.195696 0.785783
vt 0.207756 0.773574
vt 0.224865 0.773391
vt 0.195696 0.802880
vt 0.198078 0.801926
vt 0.207739 0.815076
vt 0.208757 0.812698
vt 0.225076 0.815138
vt 0.224091 0.812722
vt 0.237246 0.802710
vt 0.234845 0.801707
vt 0.237185 0.785375
vt 0.234763 0.786396
vt 0.394836 0.416307
vt 0.411681 0.416307
vt 0.411681 0.433565
vt 0.394836 0.433565
vt 0.377990 0.416307
vt 0.377990 0.433565
vt 0.919109 0.369048
vt 0.919132 0.353808
vt 0.921508 0.352797
vt 0.921508 0.370022
vt 0.908246 0.379774
vt 0.909241 0.382200
vt 0.908368 0.343034
vt 0.909331 0.340641
vt 0.361145 0.416307
vt 0.361145 0.433565
vt 0.893151 0.343028
vt 0.892140 0.340658
vt 0.479063 0.416307
vt 0.495908 0.416307
vt 0.495908 0.433565
vt 0.479063 0.433565
vt 0.882394 0.353774
vt 0.880007 0.352812
vt 0.462217 0.416307
vt 0.462217 0.433565
vt 0.882372 0.368969
vt 0.880006 0.369967
vt 0.445372 0.416307
vt 0.445372 0.433565
vt 0.893030 0.379762
vt 0.892051 0.382104
vt 0.428527 0.416307
vt 0.428527 0.433565
vt 0.900726 0.361400
s 1
f 8/1/1 2/2/2 1/3/3 5/4/4
f 2/2/2 73/5/5 4/6/6 1/3/3
f 5/4/4 1/3/3 3/7/7 7/8/8
f 1/3/3 4/6/6 43/9/9 3/7/7
f 8/1/1 5/4/4 6/10/10 10/11/11
f 5/4/4 7/8/8 33/12/12 6/10/10
f 9/13/13 8/1/1 10/11/11 11/14/14
f 9/13/13 76/15/15 2/2/2 8/1/1
f 15/16/16 11/14/14 10/11/11 12/17/17
f 12/17/17 10/11/11 6/10/10 14/18/18
f 13/19/19 16/20/20 15/16/16 12/17/17
f 34/21/21 13/19/19 12/17/17 14/18/18
f 16/20/20 18/22/22 17/23/23 15/16/16
f 17/23/23 20/24/24 11/14/14 15/16/16
f 18/22/22 36/25/25 19/26/26 17/23/23
f 19/26/26 22/27/27 20/24/24 17/23/23
f 23/28/28 21/29/29 20/24/24 22/27/27
f 21/29/29 9/13/13 11/14/14 20/24/24
f 25/30/30 23/28/28 22/27/27 24/31/31
f 27/32/32 24/31/31 22/27/27 19/26/26
f 37/33/33 25/34/30 24/35/31 26/36/34
f 29/37/35 26/36/34 24/35/31 27/38/32
f 36/25/25 28/39/36 27/32/32 19/26/26
f 28/40/36 30/41/37 29/37/35 27/38/32
f 30/41/37 32/42/38 31/43/39 29/37/35
f 31/43/39 33/12/12 26/36/34 29/37/35
f 32/42/38 34/21/21 14/18/18 31/43/39
f 14/18/18 6/10/10 33/12/12 31/43/39
f 7/8/8 37/33/33 26/36/34 33/12/12
f 34/44/21 32/45/38 35/46/40 13/47/19
f 30/48/37 28/49/36 35/46/40 32/45/38
f 18/50/22 16/51/20 13/47/19 35/46/40
f 36/52/25 18/50/22 35/46/40 28/49/36
f 37/33/33 38/53/41 39/54/42 25/34/30
f 7/8/8 3/7/7 38/53/41 37/33/33
f 3/7/7 43/9/9 40/55/43 38/53/41
f 38/53/41 40/55/43 42/56/44 39/54/42
f 44/57/45 41/58/46 40/59/43 43/60/9
f 41/58/46 58/61/47 42/62/44 40/59/43
f 45/63/48 44/57/45 43/60/9 4/64/6
f 44/57/45 46/65/49 47/66/50 41/58/46
f 45/63/48 48/67/51 46/65/49 44/57/45
f 46/65/49 49/68/52 52/69/53 47/66/50
f 48/67/51 51/70/54 49/68/52 46/65/49
f 50/71/55 53/72/56 52/73/53 49/74/52
f 80/75/57 50/71/55 49/74/52 51/76/54
f 53/72/56 55/77/58 54/78/59 52/73/53
f 47/66/50 52/69/53 54/79/59 57/80/60
f 55/77/58 91/81/61 56/82/62 54/78/59
f 57/83/60 54/84/59 56/85/62 59/86/63
f 58/87/47 57/83/60 59/86/63 60/88/64
f 41/58/46 47/66/50 57/80/60 58/61/47
f 60/88/64 59/86/63 61/89/65 62/90/66
f 59/86/63 56/85/62 64/91/67 61/89/65
f 62/90/66 61/89/65 63/92/68 72/93/69
f 61/89/65 64/91/67 66/94/70 63/92/68
f 65/95/71 67/96/72 66/97/70 64/98/67
f 91/81/61 65/95/71 64/98/67 56/82/62
f 67/96/72 69/99/73 68/100/74 66/97/70
f 63/92/68 66/94/70 68/101/74 70/102/75
f 69/99/73 80/75/57 51/76/54 68/100/74
f 70/102/75 68/101/74 51/70/54 48/67/51
f 71/103/76 70/102/75 48/67/51 45/63/48
f 72/93/69 63/92/68 70/102/75 71/103/76
f 72/93/69 71/103/76 73/104/5 74/105/77
f 71/103/76 45/63/48 4/64/6 73/104/5
f 76/15/15 74/106/77 73/5/5 2/2/2
f 62/90/66 72/93/69 74/105/77 75/107/78
f 77/108/79 75/109/78 74/106/77 76/15/15
f 21/29/29 77/108/79 76/15/15 9/13/13
f 23/28/28 78/110/80 77/108/79 21/29/29
f 78/110/80 79/111/81 75/109/78 77/108/79
f 25/30/30 39/112/42 78/110/80 23/28/28
f 39/112/42 42/113/44 79/111/81 78/110/80
f 58/87/47 60/88/64 79/114/81 42/115/44
f 60/88/64 62/90/66 75/107/78 79/114/81
f 80/75/57 69/99/73 81/116/19 83/117/21
f 69/99/73 67/96/72 84/118/20 81/116/19
f 85/119/16 82/120/17 81/116/19 84/118/20
f 82/120/17 97/121/18 83/117/21 81/116/19
f 87/122/23 85/119/16 84/118/20 86/123/22
f 67/96/72 65/95/71 86/123/22 84/118/20
f 89/124/26 87/122/23 86/123/22 88/125/25
f 65/95/71 91/81/61 88/125/25 86/123/22
f 92/126/32 89/124/26 88/125/25 90/127/36
f 91/81/61 55/77/58 90/127/36 88/125/25
f 94/128/35 92/126/32 90/127/36 93/129/37
f 55/77/58 53/72/56 93/129/37 90/127/36
f 96/130/39 94/128/35 93/129/37 95/131/38
f 53/72/56 50/71/55 95/131/38 93/129/37
f 97/121/18 96/130/39 95/131/38 83/117/21
f 50/71/55 80/75/57 83/117/21 95/131/38
f 96/132/39 97/133/18 100/134/82 98/135/83
f 94/136/35 96/132/39 98/135/83 101/137/84
f 99/138/85 102/139/86 101/140/84 98/141/83
f 113/142/87 99/138/85 98/141/83 100/143/82
f 102/139/86 104/144/88 103/145/89 101/140/84
f 92/146/32 94/136/35 101/137/84 103/147/89
f 104/144/88 106/148/90 105/149/91 103/145/89
f 89/150/26 92/151/32 103/152/89 105/153/91
f 106/148/90 108/154/92 107/155/93 105/149/91
f 87/156/23 89/150/26 105/153/91 107/157/93
f 108/154/92 110/158/94 109/159/95 107/155/93
f 85/160/16 87/156/23 107/157/93 109/161/95
f 110/158/94 112/162/96 111/163/97 109/159/95
f 82/164/17 85/160/16 109/161/95 111/165/97
f 112/162/96 113/142/87 100/143/82 111/163/97
f 97/133/18 82/164/17 111/165/97 100/134/82
f 99/138/85 113/142/87 112/162/96 114/166/98
f 110/158/94 108/154/92 114/166/98 112/162/96
f 104/144/88 102/139/86 99/138/85 114/166/98
f 108/154/92 106/148/90 104/144/88 114/166/98
