# Blender 4.0.2
# www.blender.org
mtllib Chiote_Structure_floor.mtl
o Chiote_Structure_floor
v -2.000000 0.000000 2.000000
v -2.000000 0.000000 0.000000
v -2.000000 0.100000 2.000000
v 0.000000 0.000000 2.000000
v 0.000000 0.000000 0.000000
v 0.000000 0.100000 2.000000
v 0.000000 0.100000 0.000000
v -2.000000 0.100000 0.000000
vn -1.0000 -0.0000 -0.0000
vn -0.0000 -0.0000 1.0000
vn 1.0000 -0.0000 -0.0000
vn -0.0000 1.0000 -0.0000
vn -0.0000 -0.0000 -1.0000
vt 0.515885 0.787414
vt 0.515885 0.770452
vt 0.855118 0.770452
vt 0.855118 0.787414
vt 0.498923 0.431219
vt 0.515885 0.431219
vt 0.498923 0.770452
vt 0.855118 0.414258
vt 0.855118 0.431219
vt 0.515885 0.414258
vt 0.872079 0.770452
vt 0.872079 0.431219
s 0
usemtl Lit
f 1/1/1 3/2/1 8/3/1 2/4/1
f 4/5/2 6/6/2 3/2/2 1/7/2
f 5/8/3 7/9/3 6/6/3 4/10/3
f 7/9/4 8/3/4 3/2/4 6/6/4
f 2/11/5 8/3/5 7/9/5 5/12/5
