# Blender 4.0.2
# www.blender.org
mtllib Chiote_Structure_Exit.mtl
o Chiote_Structure_Exit
v -0.200000 2.100000 4.000000
v 0.000000 2.100000 4.000000
v 0.000000 0.000000 4.000000
v 0.000000 0.000000 3.000000
v 0.000000 1.883488 3.000000
v -0.200000 0.000000 3.000000
v -0.200000 1.883488 3.000000
v -0.200000 2.100000 0.000000
v 0.000000 2.100000 0.000000
v 0.000000 0.000000 0.000000
v 0.000000 0.000000 1.000000
v 0.000000 1.883488 1.000000
v -0.200000 0.000000 1.000000
v -0.200000 1.883488 1.000000
v 0.000000 0.210251 4.000000
v 0.075497 0.210251 4.000000
v 0.000000 0.210251 3.000000
v 0.075497 0.210251 3.000000
v 0.000000 0.000000 3.000000
v 0.075497 0.000000 3.000000
v 0.075497 0.000000 4.000000
v -0.200000 2.105616 4.000000
v -0.100833 2.105616 4.000000
v -0.200000 2.105616 0.000000
v -0.100833 2.105616 0.000000
v 0.000000 0.210251 0.000000
v 0.075497 0.210251 0.000000
v 0.000000 0.210251 1.000000
v 0.075497 0.210251 1.000000
v 0.000000 0.000000 1.000000
v 0.075497 0.000000 1.000000
v 0.075497 0.000000 0.000000
vn 1.0000 -0.0000 -0.0000
vn -0.0000 -1.0000 -0.0000
vn -0.0000 -0.0000 -1.0000
vn -0.0000 -0.0000 1.0000
vn -0.0000 1.0000 -0.0000
vt 0.363463 0.180530
vt 0.400187 0.010913
vt 0.400187 0.689379
vt 0.363463 0.519762
vt 0.043571 0.330384
vt 0.043571 0.669616
vt 0.009647 0.669616
vt 0.009647 0.330384
vt 0.043992 0.519762
vt 0.043992 0.689379
vt 0.009647 0.010913
vt 0.043571 0.010913
vt 0.043992 0.180530
vt 0.043992 0.010913
vt 0.043571 0.989087
vt 0.009647 0.989087
vt 0.434110 0.010913
vt 0.434110 0.689379
vt 0.043992 0.689800
vt 0.056798 0.689800
vt 0.056798 0.859416
vt 0.043992 0.859416
vt 0.056798 0.895079
vt 0.043992 0.895079
vt 0.092460 0.689800
vt 0.092460 0.859416
vt 0.451352 0.010913
vt 0.451352 0.689378
vt 0.434531 0.689378
vt 0.434531 0.010913
vt 0.141349 0.689800
vt 0.141349 0.859417
vt 0.128543 0.859417
vt 0.128543 0.689800
vt 0.141349 0.895079
vt 0.128543 0.895079
vt 0.092881 0.689800
vt 0.092881 0.859417
s 0
usemtl Lit
f 12/1/1 9/2/1 2/3/1 5/4/1
f 7/5/2 14/6/2 12/7/2 5/8/2
f 4/9/1 5/4/1 2/3/1 3/10/1
f 5/8/3 4/11/3 6/12/3 7/5/3
f 11/13/1 10/14/1 9/2/1 12/1/1
f 12/7/4 14/6/4 13/15/4 11/16/4
f 2/3/5 9/2/5 8/17/5 1/18/5
f 15/19/5 16/20/5 18/21/5 17/22/5
f 17/22/3 18/21/3 20/23/3 19/24/3
f 21/25/1 20/26/1 18/21/1 16/20/1
f 26/31/5 28/32/5 29/33/5 27/34/5
f 28/32/4 30/35/4 31/36/4 29/33/4
f 32/37/1 27/34/1 29/33/1 31/38/1
usemtl Unlit_Black
f 24/27/5 22/28/5 23/29/5 25/30/5
